<svg width="633" height="455" viewBox="0 0 633 455" fill="none" xmlns="http://www.w3.org/2000/svg">
<g filter="url(#filter0_d)">
<path d="M110.832 4.06398C127.536 4.06398 142.128 8.95999 154.608 18.752C167.088 28.544 173.328 41.216 173.328 56.768C173.328 65.024 171.024 71.84 166.416 77.216C161.808 82.592 156.144 85.28 149.424 85.28C142.704 85.28 137.328 84.416 133.296 82.688C133.872 79.616 134.16 76.352 134.16 72.896C133.968 60.8 130.992 51.008 125.232 43.52C119.472 35.84 111.024 32 99.888 32C88.944 32 78.768 35.552 69.36 42.656C63.792 50.72 59.472 61.28 56.4 74.336C53.328 87.392 51.792 100.256 51.792 112.928C51.792 134.048 55.824 151.808 63.888 166.208C72.144 180.416 84.912 187.52 102.192 187.52C118.128 187.52 128.88 181.472 134.448 169.376C139.632 158.816 142.224 144.8 142.224 127.328C152.016 127.328 160.176 129.152 166.704 132.8C173.232 136.256 176.496 142.016 176.496 150.08C176.496 168.896 168.24 184.544 151.728 197.024C135.216 209.312 116.592 215.456 95.856 215.456C68.784 215.456 48.24 206.528 34.224 188.672C20.208 170.624 13.2 146.24 13.2 115.52C13.2 84.8 21.936 58.592 39.408 36.896C57.072 15.008 80.88 4.06398 110.832 4.06398ZM249.736 215.456C228.616 215.456 213.064 209.312 203.08 197.024C193.096 184.544 188.104 167.264 188.104 145.184C188.104 122.912 194.728 103.616 207.976 87.296C221.224 70.976 238.216 62.816 258.952 62.816C301.576 62.816 322.888 86.816 322.888 134.816C322.888 157.28 315.976 176.384 302.152 192.128C288.328 207.68 270.856 215.456 249.736 215.456ZM229 94.496C225.544 105.632 223.816 116.768 223.816 127.904C223.816 139.04 224.2 147.68 224.968 153.824C225.736 159.968 227.176 166.112 229.288 172.256C233.704 184.736 242.344 190.976 255.208 190.976C268.264 190.976 276.808 187.52 280.84 180.608C285.064 173.696 287.176 163.04 287.176 148.64C287.176 107.744 277.48 87.296 258.088 87.296C246.952 87.296 237.256 89.696 229 94.496ZM397.955 215.456C376.835 215.456 361.283 209.312 351.299 197.024C341.315 184.544 336.323 167.264 336.323 145.184C336.323 122.912 342.947 103.616 356.195 87.296C369.443 70.976 386.435 62.816 407.171 62.816C449.795 62.816 471.107 86.816 471.107 134.816C471.107 157.28 464.195 176.384 450.371 192.128C436.547 207.68 419.075 215.456 397.955 215.456ZM377.219 94.496C373.763 105.632 372.035 116.768 372.035 127.904C372.035 139.04 372.419 147.68 373.187 153.824C373.955 159.968 375.395 166.112 377.507 172.256C381.923 184.736 390.563 190.976 403.427 190.976C416.483 190.976 425.027 187.52 429.059 180.608C433.283 173.696 435.395 163.04 435.395 148.64C435.395 107.744 425.699 87.296 406.307 87.296C395.171 87.296 385.475 89.696 377.219 94.496ZM496.061 10.976C502.205 8.67199 508.829 7.51999 515.933 7.51999C533.021 7.51999 541.565 15.296 541.565 30.848C541.565 39.296 540.605 53.216 538.685 72.608C536.765 91.808 535.805 111.776 535.805 132.512C535.805 153.248 536.477 170.432 537.821 184.064C543.005 184.64 548.189 184.928 553.373 184.928C578.717 184.928 600.989 180.704 620.189 172.256C622.493 177.44 623.645 183.296 623.645 189.824C623.645 196.352 621.341 202.016 616.733 206.816C612.317 211.424 606.845 213.728 600.317 213.728C586.685 213.728 556.829 212.576 510.749 210.272C507.101 210.08 503.933 209.024 501.245 207.104C498.557 204.992 497.213 202.4 497.213 199.328C497.213 189.152 497.981 171.968 499.517 147.776C501.245 123.584 502.109 101.312 502.109 80.96C502.109 60.416 500.093 37.088 496.061 10.976Z" fill="black"/>
<path d="M154.608 18.752L152.139 21.899L152.139 21.899L154.608 18.752ZM133.296 82.688L129.365 81.9508L128.774 85.1017L131.72 86.3646L133.296 82.688ZM134.16 72.896H138.16V72.8643L138.16 72.8325L134.16 72.896ZM125.232 43.52L122.032 45.92L122.047 45.9395L122.062 45.9588L125.232 43.52ZM69.36 42.656L66.9496 39.4638L66.4349 39.8525L66.0684 40.3832L69.36 42.656ZM63.888 166.208L60.398 168.162L60.4135 168.19L60.4295 168.218L63.888 166.208ZM134.448 169.376L130.857 167.613L130.835 167.658L130.814 167.703L134.448 169.376ZM142.224 127.328V123.328H138.224V127.328H142.224ZM166.704 132.8L164.753 136.292L164.792 136.314L164.832 136.335L166.704 132.8ZM151.728 197.024L154.116 200.233L154.128 200.224L154.14 200.215L151.728 197.024ZM34.224 188.672L31.0648 191.125L31.0711 191.134L31.0776 191.142L34.224 188.672ZM39.408 36.896L36.2952 34.3839L36.2926 34.3871L39.408 36.896ZM110.832 8.06398C126.692 8.06398 140.402 12.6903 152.139 21.899L157.077 15.605C143.854 5.22969 128.38 0.063982 110.832 0.063982V8.06398ZM152.139 21.899C163.675 30.9504 169.328 42.4728 169.328 56.768H177.328C177.328 39.9592 170.501 26.1376 157.077 15.605L152.139 21.899ZM169.328 56.768C169.328 64.2365 167.265 70.0795 163.379 74.6128L169.453 79.8192C174.783 73.6005 177.328 65.8115 177.328 56.768H169.328ZM163.379 74.6128C159.484 79.1565 154.907 81.28 149.424 81.28V89.28C157.381 89.28 164.132 86.0275 169.453 79.8192L163.379 74.6128ZM149.424 81.28C142.987 81.28 138.213 80.4433 134.872 79.0114L131.72 86.3646C136.443 88.3887 142.421 89.28 149.424 89.28V81.28ZM137.227 83.4251C137.854 80.0861 138.16 76.5737 138.16 72.896H130.16C130.16 76.1303 129.89 79.1459 129.365 81.9508L137.227 83.4251ZM138.16 72.8325C137.958 60.119 134.818 49.4214 128.403 41.0811L122.062 45.9588C127.166 52.5946 129.978 61.481 130.161 72.9595L138.16 72.8325ZM128.432 41.12C121.789 32.2628 112.054 28 99.888 28V36C109.994 36 117.155 39.4172 122.032 45.92L128.432 41.12ZM99.888 28C88.0053 28 76.9949 31.8786 66.9496 39.4638L71.7704 45.8482C80.5411 39.2254 89.8827 36 99.888 36V28ZM66.0684 40.3832C60.1333 48.9789 55.6533 60.0453 52.5063 73.4198L60.2937 75.2522C63.2907 62.5147 67.4507 52.4611 72.6516 44.9288L66.0684 40.3832ZM52.5063 73.4198C49.3678 86.7586 47.792 99.9301 47.792 112.928H55.792C55.792 100.582 57.2882 88.0254 60.2937 75.2522L52.5063 73.4198ZM47.792 112.928C47.792 134.545 51.9187 153.021 60.398 168.162L67.378 164.254C59.7293 150.595 55.792 133.551 55.792 112.928H47.792ZM60.4295 168.218C69.4456 183.734 83.5771 191.52 102.192 191.52V183.52C86.2469 183.52 74.8424 177.098 67.3465 164.198L60.4295 168.218ZM102.192 191.52C110.651 191.52 118.044 189.915 124.169 186.47C130.339 183 134.975 177.798 138.082 171.049L130.814 167.703C128.353 173.05 124.829 176.92 120.247 179.498C115.62 182.101 109.669 183.52 102.192 183.52V191.52ZM138.039 171.139C143.591 159.829 146.224 145.139 146.224 127.328H138.224C138.224 144.461 135.673 157.803 130.857 167.613L138.039 171.139ZM142.224 131.328C151.538 131.328 158.978 133.065 164.753 136.292L168.655 129.308C161.374 125.239 152.494 123.328 142.224 123.328V131.328ZM164.832 136.335C167.503 137.749 169.355 139.543 170.568 141.684C171.792 143.844 172.496 146.589 172.496 150.08H180.496C180.496 145.507 179.568 141.34 177.528 137.74C175.477 134.121 172.433 131.307 168.576 129.265L164.832 136.335ZM172.496 150.08C172.496 167.504 164.943 182.022 149.316 193.833L154.14 200.215C171.537 187.066 180.496 170.288 180.496 150.08H172.496ZM149.34 193.815C133.524 205.585 115.739 211.456 95.856 211.456V219.456C117.445 219.456 136.908 213.039 154.116 200.233L149.34 193.815ZM95.856 211.456C69.7479 211.456 50.4787 202.902 37.3704 186.202L31.0776 191.142C46.0013 210.154 67.8201 219.456 95.856 219.456V211.456ZM37.3832 186.219C24.0733 169.08 17.2 145.656 17.2 115.52H9.2C9.2 146.824 16.3427 172.168 31.0648 191.125L37.3832 186.219ZM17.2 115.52C17.2 85.6129 25.6835 60.3159 42.5234 39.4048L36.2926 34.3871C18.1885 56.8681 9.2 83.9871 9.2 115.52H17.2ZM42.5208 39.4081C59.3705 18.529 81.999 8.06398 110.832 8.06398V0.063982C79.761 0.063982 54.7735 11.4869 36.2952 34.3839L42.5208 39.4081ZM203.08 197.024L199.956 199.523L199.966 199.535L199.975 199.546L203.08 197.024ZM207.976 87.296L204.87 84.775L204.87 84.775L207.976 87.296ZM302.152 192.128L305.141 194.785L305.149 194.776L305.158 194.767L302.152 192.128ZM229 94.496L226.989 91.038L225.642 91.8215L225.179 93.3104L229 94.496ZM224.968 153.824L220.999 154.32L220.999 154.32L224.968 153.824ZM229.288 172.256L225.505 173.556L225.511 173.573L225.517 173.59L229.288 172.256ZM280.84 180.608L277.427 178.522L277.405 178.557L277.385 178.593L280.84 180.608ZM249.736 211.456C229.39 211.456 215.174 205.566 206.184 194.502L199.975 199.546C210.954 213.058 227.841 219.456 249.736 219.456V211.456ZM206.203 194.525C196.969 182.982 192.104 166.698 192.104 145.184H184.104C184.104 167.83 189.223 186.106 199.956 199.523L206.203 194.525ZM192.104 145.184C192.104 123.771 198.448 105.38 211.081 89.817L204.87 84.775C191.008 101.852 184.104 122.053 184.104 145.184H192.104ZM211.081 89.817C223.582 74.4177 239.44 66.816 258.952 66.816V58.816C236.992 58.816 218.866 67.5343 204.87 84.775L211.081 89.817ZM258.952 66.816C279.516 66.816 294.244 72.5836 303.913 83.472C313.662 94.4509 318.888 111.323 318.888 134.816H326.888C326.888 110.309 321.457 91.1811 309.895 78.16C298.252 65.0484 281.012 58.816 258.952 58.816V66.816ZM318.888 134.816C318.888 156.385 312.281 174.53 299.146 189.489L305.158 194.767C319.671 178.238 326.888 158.175 326.888 134.816H318.888ZM299.162 189.471C286.11 204.154 269.733 211.456 249.736 211.456V219.456C271.979 219.456 290.545 211.206 305.141 194.785L299.162 189.471ZM225.179 93.3104C221.61 104.812 219.816 116.347 219.816 127.904H227.816C227.816 117.189 229.478 106.452 232.82 95.6816L225.179 93.3104ZM219.816 127.904C219.816 139.097 220.2 147.931 220.999 154.32L228.937 153.328C228.2 147.429 227.816 138.983 227.816 127.904H219.816ZM220.999 154.32C221.803 160.751 223.308 167.164 225.505 173.556L233.07 170.956C231.044 165.06 229.669 159.185 228.937 153.328L220.999 154.32ZM225.517 173.59C227.93 180.41 231.614 185.838 236.738 189.539C241.871 193.246 248.113 194.976 255.208 194.976V186.976C249.439 186.976 244.929 185.586 241.422 183.053C237.905 180.514 235.062 176.582 233.059 170.922L225.517 173.59ZM255.208 194.976C268.746 194.976 279.173 191.403 284.295 182.623L277.385 178.593C274.442 183.637 267.781 186.976 255.208 186.976V194.976ZM284.253 182.694C289.056 174.834 291.176 163.28 291.176 148.64H283.176C283.176 162.8 281.072 172.558 277.427 178.522L284.253 182.694ZM291.176 148.64C291.176 128.003 288.75 111.951 283.518 100.918C280.877 95.349 277.449 90.9053 273.114 87.8576C268.743 84.7849 263.681 83.296 258.088 83.296V91.296C262.191 91.296 265.612 92.3631 268.513 94.4023C271.45 96.4667 274.082 99.691 276.289 104.346C280.754 113.761 283.176 128.381 283.176 148.64H291.176ZM258.088 83.296C246.364 83.296 235.951 85.8278 226.989 91.038L231.01 97.954C238.561 93.5642 247.539 91.296 258.088 91.296V83.296ZM351.299 197.024L348.175 199.523L348.184 199.535L348.194 199.546L351.299 197.024ZM356.195 87.296L353.089 84.775L353.089 84.775L356.195 87.296ZM450.371 192.128L453.36 194.785L453.368 194.776L453.376 194.767L450.371 192.128ZM377.219 94.496L375.208 91.038L373.86 91.8215L373.398 93.3104L377.219 94.496ZM373.187 153.824L369.217 154.32L369.217 154.32L373.187 153.824ZM377.507 172.256L373.724 173.556L373.73 173.573L373.736 173.59L377.507 172.256ZM429.059 180.608L425.645 178.522L425.624 178.557L425.603 178.593L429.059 180.608ZM397.955 211.456C377.609 211.456 363.392 205.566 354.403 194.502L348.194 199.546C359.173 213.058 376.06 219.456 397.955 219.456V211.456ZM354.422 194.525C345.188 182.982 340.323 166.698 340.323 145.184H332.323C332.323 167.83 337.441 186.106 348.175 199.523L354.422 194.525ZM340.323 145.184C340.323 123.771 346.667 105.38 359.3 89.817L353.089 84.775C339.226 101.852 332.323 122.053 332.323 145.184H340.323ZM359.3 89.817C371.801 74.4177 387.659 66.816 407.171 66.816V58.816C385.21 58.816 367.084 67.5343 353.089 84.775L359.3 89.817ZM407.171 66.816C427.735 66.816 442.463 72.5836 452.132 83.472C461.881 94.4509 467.107 111.323 467.107 134.816H475.107C475.107 110.309 469.676 91.1811 458.113 78.16C446.47 65.0484 429.23 58.816 407.171 58.816V66.816ZM467.107 134.816C467.107 156.385 460.499 174.53 447.365 189.489L453.376 194.767C467.89 178.238 475.107 158.175 475.107 134.816H467.107ZM447.381 189.471C434.329 204.154 417.952 211.456 397.955 211.456V219.456C420.197 219.456 438.764 211.206 453.36 194.785L447.381 189.471ZM373.398 93.3104C369.829 104.812 368.035 116.347 368.035 127.904H376.035C376.035 117.189 377.696 106.452 381.039 95.6816L373.398 93.3104ZM368.035 127.904C368.035 139.097 368.419 147.931 369.217 154.32L377.156 153.328C376.418 147.429 376.035 138.983 376.035 127.904H368.035ZM369.217 154.32C370.021 160.751 371.526 167.164 373.724 173.556L381.289 170.956C379.263 165.06 377.888 159.185 377.156 153.328L369.217 154.32ZM373.736 173.59C376.149 180.41 379.833 185.838 384.957 189.539C390.089 193.246 396.332 194.976 403.427 194.976V186.976C397.657 186.976 393.148 185.586 389.64 183.053C386.124 180.514 383.28 176.582 381.277 170.922L373.736 173.59ZM403.427 194.976C416.965 194.976 427.392 191.403 432.514 182.623L425.603 178.593C422.661 183.637 416 186.976 403.427 186.976V194.976ZM432.472 182.694C437.275 174.834 439.395 163.28 439.395 148.64H431.395C431.395 162.8 429.29 172.558 425.645 178.522L432.472 182.694ZM439.395 148.64C439.395 128.003 436.968 111.951 431.737 100.918C429.096 95.349 425.668 90.9053 421.333 87.8576C416.962 84.7849 411.899 83.296 406.307 83.296V91.296C410.41 91.296 413.831 92.3631 416.732 94.4023C419.669 96.4667 422.301 99.691 424.508 104.346C428.973 113.761 431.395 128.381 431.395 148.64H439.395ZM406.307 83.296C394.583 83.296 384.169 85.8278 375.208 91.038L379.229 97.954C386.78 93.5642 395.758 91.296 406.307 91.296V83.296ZM496.061 10.976L494.657 7.23068L491.612 8.37253L492.108 11.5864L496.061 10.976ZM538.685 72.608L542.665 73.006L542.666 73.0021L538.685 72.608ZM537.821 184.064L533.841 184.456L534.159 187.682L537.38 188.04L537.821 184.064ZM620.189 172.256L623.845 170.631L622.226 166.99L618.578 168.595L620.189 172.256ZM616.733 206.816L613.848 204.046L613.845 204.048L616.733 206.816ZM510.749 210.272L510.539 214.266L510.55 214.267L510.749 210.272ZM501.245 207.104L498.774 210.249L498.846 210.306L498.92 210.359L501.245 207.104ZM499.517 147.776L495.527 147.491L495.526 147.507L495.525 147.523L499.517 147.776ZM497.466 14.7213C503.125 12.5991 509.269 11.52 515.933 11.52V3.51999C508.389 3.51999 501.286 4.74484 494.657 7.23068L497.466 14.7213ZM515.933 11.52C523.949 11.52 529.214 13.3519 532.465 16.3102C535.644 19.2036 537.565 23.7907 537.565 30.848H545.565C545.565 22.3533 543.214 15.2764 537.85 10.3937C532.556 5.57611 525.005 3.51999 515.933 3.51999V11.52ZM537.565 30.848C537.565 39.0808 536.624 52.8287 534.705 72.2139L542.666 73.0021C544.586 53.6033 545.565 39.5112 545.565 30.848H537.565ZM534.705 72.21C532.771 91.5516 531.805 111.653 531.805 132.512H539.805C539.805 111.899 540.76 92.0644 542.665 73.006L534.705 72.21ZM531.805 132.512C531.805 153.32 532.479 170.646 533.841 184.456L541.802 183.672C540.476 170.218 539.805 153.176 539.805 132.512H531.805ZM537.38 188.04C542.709 188.632 548.041 188.928 553.373 188.928V180.928C548.338 180.928 543.301 180.648 538.263 180.088L537.38 188.04ZM553.373 188.928C579.159 188.928 601.998 184.63 621.8 175.917L618.578 168.595C599.98 176.778 578.276 180.928 553.373 180.928V188.928ZM616.534 173.881C618.579 178.482 619.645 183.772 619.645 189.824H627.645C627.645 182.82 626.408 176.398 623.845 170.631L616.534 173.881ZM619.645 189.824C619.645 195.297 617.756 199.975 613.848 204.046L619.619 209.586C624.927 204.057 627.645 197.407 627.645 189.824H619.645ZM613.845 204.048C610.203 207.849 605.783 209.728 600.317 209.728V217.728C607.908 217.728 614.432 214.999 619.621 209.584L613.845 204.048ZM600.317 209.728C586.805 209.728 557.055 208.582 510.949 206.277L510.55 214.267C556.604 216.57 586.566 217.728 600.317 217.728V209.728ZM510.959 206.278C507.989 206.121 505.573 205.28 503.57 203.849L498.92 210.359C502.293 212.768 506.213 214.039 510.539 214.266L510.959 206.278ZM503.717 203.959C501.87 202.508 501.213 201.023 501.213 199.328H493.213C493.213 203.777 495.245 207.476 498.774 210.249L503.717 203.959ZM501.213 199.328C501.213 189.292 501.973 172.22 503.509 148.029L495.525 147.523C493.989 171.716 493.213 189.012 493.213 199.328H501.213ZM503.507 148.061C505.241 123.791 506.109 101.423 506.109 80.96H498.109C498.109 101.201 497.25 123.377 495.527 147.491L503.507 148.061ZM506.109 80.96C506.109 60.1635 504.069 36.6256 500.014 10.3656L492.108 11.5864C496.117 37.5504 498.109 60.6685 498.109 80.96H506.109Z" fill="#BE7167"/>
</g>
<path d="M36.608 343.584C36.032 346.272 35.744 348.48 35.744 350.208C35.744 358.08 38.048 364.128 42.656 368.352C47.456 372.576 53.792 374.688 61.664 374.688C69.728 374.688 76.352 373.248 81.536 370.368C86.912 367.296 89.6 362.784 89.6 356.832C89.6 350.88 86.72 346.176 80.96 342.72C75.392 339.072 68.576 336.192 60.512 334.08C52.64 331.968 44.672 329.664 36.608 327.168C28.544 324.48 21.632 320.352 15.872 314.784C10.304 309.216 7.52 302.208 7.52 293.76C7.52 280.512 14.528 269.376 28.544 260.352C42.56 251.328 57.248 246.816 72.608 246.816C89.504 246.816 102.368 250.272 111.2 257.184C116.384 261.216 118.976 266.592 118.976 273.312C118.976 279.84 116.384 285.216 111.2 289.44C106.208 293.472 100.064 295.488 92.768 295.488C91.232 295.488 89.312 295.296 87.008 294.912C87.584 292.416 87.872 290.208 87.872 288.288C87.872 282.72 85.76 278.496 81.536 275.616C77.312 272.736 71.552 271.296 64.256 271.296C57.152 271.296 50.624 272.736 44.672 275.616C42.368 278.688 41.216 282.624 41.216 287.424C41.216 292.224 44 296.16 49.568 299.232C55.136 302.112 61.856 304.704 69.728 307.008C77.792 309.12 85.856 311.616 93.92 314.496C101.984 317.184 108.8 321.504 114.368 327.456C119.936 333.216 122.72 340.512 122.72 349.344C122.72 363.744 115.52 375.744 101.12 385.344C86.912 394.752 72.224 399.456 57.056 399.456C41.888 399.456 29.312 396.768 19.328 391.392C9.536 385.824 4.64 377.472 4.64 366.336C4.64 359.424 7.136 353.856 12.128 349.632C17.312 345.216 23.552 343.008 30.848 343.008C32.384 343.008 34.304 343.2 36.608 343.584ZM153.271 207.936C159.415 204.864 165.655 203.328 171.991 203.328C178.327 203.328 183.415 205.344 187.255 209.376C191.287 213.408 193.303 219.36 193.303 227.232C193.303 235.104 192.823 244.032 191.863 254.016C206.263 254.016 219.991 252 233.047 247.968C235.351 251.808 236.503 256.32 236.503 261.504C236.503 266.496 234.199 270.624 229.591 273.888C225.175 276.96 220.663 278.496 216.055 278.496C211.447 278.496 206.263 277.92 200.503 276.768C194.743 275.616 190.999 274.944 189.271 274.752C189.079 276.48 188.503 279.936 187.543 285.12C186.775 290.304 186.103 294.816 185.527 298.656C183.991 309.216 183.223 320.544 183.223 332.64C183.223 358.944 191.767 372.096 208.855 372.096C215.191 372.096 222.487 369.888 230.743 365.472C233.239 369.12 234.487 373.824 234.487 379.584C234.487 385.344 231.319 389.856 224.983 393.12C218.839 396.192 211.447 397.728 202.807 397.728C169.015 397.728 152.119 378.528 152.119 340.128C152.119 334.56 152.887 324.48 154.423 309.888C156.151 295.296 157.015 283.488 157.015 274.464C147.799 275.04 140.407 276.672 134.839 279.36C132.535 275.904 131.383 271.968 131.383 267.552C131.383 262.944 133.015 259.2 136.279 256.32C139.543 253.248 143.575 251.712 148.375 251.712C153.175 251.712 156.343 251.808 157.879 252C158.071 250.464 158.167 248.448 158.167 245.952C158.167 231.552 156.535 218.88 153.271 207.936ZM258.832 366.624L261.712 306.72C261.712 288.096 259.024 270.432 253.648 253.728C259.024 251.424 265.648 250.272 273.52 250.272C288.88 250.272 296.56 258.816 296.56 275.904C296.56 285.504 295.504 299.04 293.392 316.512C291.28 333.792 290.224 346.368 290.224 354.24C290.224 363.84 294.544 368.64 303.184 368.64C308.368 368.64 314.416 364.32 321.328 355.68C328.432 346.848 334.48 337.056 339.472 326.304C344.656 315.36 347.728 306.432 348.688 299.52C347.536 278.4 345.904 263.136 343.792 253.728C349.936 251.424 356.176 250.272 362.512 250.272C369.04 250.272 374.416 252.288 378.64 256.32C383.056 260.352 385.264 265.344 385.264 271.296C385.264 277.248 384.4 287.136 382.672 300.96C380.944 314.784 380.08 329.28 380.08 344.448C380.08 359.424 381.808 375.456 385.264 392.544C377.776 394.848 371.056 396 365.104 396C353.2 396 347.248 388.128 347.248 372.384C347.248 365.472 348.016 355.872 349.552 343.584C341.872 359.904 332.464 373.056 321.328 383.04C310.384 392.832 299.248 397.728 287.92 397.728C268.528 397.728 258.832 387.36 258.832 366.624ZM429.546 349.056C429.546 345.6 428.682 323.136 426.954 281.664C417.546 282.24 410.058 283.872 404.49 286.56C402.186 282.336 401.034 277.92 401.034 273.312C401.034 268.704 402.666 264.96 405.93 262.08C409.194 259.008 413.034 257.472 417.45 257.472C421.866 257.472 425.034 257.568 426.954 257.76C427.914 236.64 435.306 218.88 449.13 204.48C462.954 190.08 480.33 182.88 501.258 182.88C516.81 182.88 528.81 188.832 537.258 200.736C551.082 186.912 567.69 180 587.082 180C598.794 180 608.682 182.496 616.746 187.488C624.81 192.48 628.842 199.872 628.842 209.664C628.842 216.576 626.25 222.432 621.066 227.232C615.882 232.032 609.738 234.432 602.634 234.432C601.098 234.432 599.178 234.24 596.874 233.856C597.45 231.36 597.738 229.152 597.738 227.232C597.738 220.512 596.298 215.136 593.418 211.104C590.538 206.88 585.45 204.768 578.154 204.768C570.858 204.768 564.138 206.88 557.994 211.104C554.154 216.288 551.082 223.488 548.778 232.704C546.474 241.92 545.322 250.944 545.322 259.776C562.41 259.776 579.69 257.76 597.162 253.728C599.466 257.568 600.618 262.176 600.618 267.552C600.618 272.736 598.41 277.056 593.994 280.512C589.578 283.968 584.01 285.696 577.29 285.696C577.098 285.696 566.25 284.352 544.746 281.664L547.626 431.424C547.626 443.904 540.234 450.144 525.45 450.144C520.458 450.144 513.93 448.992 505.866 446.688C512.202 421.536 515.37 388.992 515.37 349.056C515.37 345.024 514.506 322.272 512.778 280.8C488.97 280.8 471.018 280.992 458.922 281.376L461.802 431.424C461.802 443.904 454.41 450.144 439.626 450.144C434.634 450.144 428.106 448.992 420.042 446.688C426.378 421.536 429.546 388.992 429.546 349.056ZM512.778 259.2C512.97 249.408 514.89 239.904 518.538 230.688C518.154 223.968 515.85 218.496 511.626 214.272C507.402 209.856 501.258 207.648 493.194 207.648C485.322 207.648 478.314 209.76 472.17 213.984C463.722 224.544 459.498 239.424 459.498 258.624C470.826 259.008 488.586 259.2 512.778 259.2Z" fill="#9DFB04"/>
<path d="M36.608 343.584L40.5192 344.422L41.3967 340.327L37.2656 339.638L36.608 343.584ZM42.656 368.352L39.9531 371.301L39.983 371.328L40.0135 371.355L42.656 368.352ZM81.536 370.368L83.4786 373.865L83.4996 373.853L83.5206 373.841L81.536 370.368ZM80.96 342.72L78.7679 346.066L78.8341 346.109L78.902 346.15L80.96 342.72ZM60.512 334.08L59.4755 337.943L59.487 337.946L59.4986 337.949L60.512 334.08ZM36.608 327.168L35.3431 330.963L35.384 330.976L35.4253 330.989L36.608 327.168ZM15.872 314.784L13.0436 317.612L13.0675 317.636L13.0919 317.66L15.872 314.784ZM28.544 260.352L30.7094 263.715L28.544 260.352ZM111.2 257.184L108.735 260.334L108.744 260.341L111.2 257.184ZM111.2 289.44L113.713 292.552L113.72 292.546L113.727 292.541L111.2 289.44ZM87.008 294.912L83.1104 294.013L82.1538 298.158L86.3504 298.858L87.008 294.912ZM81.536 275.616L79.2827 278.921L79.2827 278.921L81.536 275.616ZM44.672 275.616L42.9298 272.015L42.055 272.439L41.472 273.216L44.672 275.616ZM49.568 299.232L47.6357 302.734L47.6827 302.76L47.7303 302.785L49.568 299.232ZM69.728 307.008L68.6044 310.847L68.6593 310.863L68.7146 310.877L69.728 307.008ZM93.92 314.496L92.5747 318.263L92.6147 318.277L92.6551 318.291L93.92 314.496ZM114.368 327.456L111.447 330.189L111.469 330.213L111.492 330.236L114.368 327.456ZM101.12 385.344L103.328 388.679L103.339 388.672L101.12 385.344ZM19.328 391.392L17.3508 394.869L17.3909 394.892L17.4316 394.914L19.328 391.392ZM12.128 349.632L14.7118 352.686L14.7219 352.677L12.128 349.632ZM32.6968 342.746C32.092 345.568 31.744 348.084 31.744 350.208H39.744C39.744 348.876 39.972 346.976 40.5192 344.422L32.6968 342.746ZM31.744 350.208C31.744 358.891 34.3144 366.132 39.9531 371.301L45.3589 365.403C41.7816 362.124 39.744 357.269 39.744 350.208H31.744ZM40.0135 371.355C45.7023 376.361 53.0534 378.688 61.664 378.688V370.688C54.5306 370.688 49.2097 368.791 45.2985 365.349L40.0135 371.355ZM61.664 378.688C70.1737 378.688 77.5247 377.172 83.4786 373.865L79.5934 366.871C75.1793 369.324 69.2823 370.688 61.664 370.688V378.688ZM83.5206 373.841C90.0809 370.092 93.6 364.289 93.6 356.832H85.6C85.6 361.279 83.7431 364.5 79.5514 366.895L83.5206 373.841ZM93.6 356.832C93.6 349.272 89.7978 343.358 83.018 339.29L78.902 346.15C83.6423 348.994 85.6 352.488 85.6 356.832H93.6ZM83.1521 339.374C77.1441 335.438 69.9071 332.406 61.5254 330.211L59.4986 337.949C67.2449 339.978 73.6399 342.706 78.7679 346.066L83.1521 339.374ZM61.5485 330.217C53.7272 328.118 45.808 325.828 37.7907 323.347L35.4253 330.989C43.536 333.5 51.5528 335.818 59.4755 337.943L61.5485 330.217ZM37.8729 323.373C30.3409 320.863 23.956 317.035 18.6521 311.908L13.0919 317.66C19.308 323.669 26.7471 328.097 35.3431 330.963L37.8729 323.373ZM18.7004 311.956C13.9409 307.196 11.52 301.233 11.52 293.76H3.52C3.52 303.183 6.66705 311.236 13.0436 317.612L18.7004 311.956ZM11.52 293.76C11.52 282.229 17.5007 272.219 30.7094 263.715L26.3786 256.989C11.5553 266.533 3.52 278.795 3.52 293.76H11.52ZM30.7094 263.715C44.137 255.07 58.0814 250.816 72.608 250.816V242.816C56.4146 242.816 40.983 247.586 26.3786 256.989L30.7094 263.715ZM72.608 250.816C89.0421 250.816 100.884 254.19 108.735 260.334L113.665 254.034C103.852 246.354 89.9659 242.816 72.608 242.816V250.816ZM108.744 260.341C112.928 263.595 114.976 267.793 114.976 273.312H122.976C122.976 265.391 119.84 258.837 113.656 254.027L108.744 260.341ZM114.976 273.312C114.976 278.604 112.951 282.853 108.673 286.339L113.727 292.541C119.817 287.579 122.976 281.076 122.976 273.312H114.976ZM108.687 286.328C104.503 289.708 99.2815 291.488 92.768 291.488V299.488C100.846 299.488 107.913 297.236 113.713 292.552L108.687 286.328ZM92.768 291.488C91.5344 291.488 89.8518 291.331 87.6656 290.966L86.3504 298.858C88.7722 299.261 90.9297 299.488 92.768 299.488V291.488ZM90.9056 295.811C91.5286 293.112 91.872 290.592 91.872 288.288H83.872C83.872 289.824 83.6395 291.72 83.1104 294.013L90.9056 295.811ZM91.872 288.288C91.872 281.536 89.2161 276.011 83.7894 272.311L79.2827 278.921C82.3039 280.981 83.872 283.904 83.872 288.288H91.872ZM83.7894 272.311C78.6732 268.823 72.0268 267.296 64.256 267.296V275.296C71.0772 275.296 75.9508 276.649 79.2827 278.921L83.7894 272.311ZM64.256 267.296C56.5943 267.296 49.4647 268.853 42.9298 272.015L46.4142 279.217C51.7833 276.619 57.7097 275.296 64.256 275.296V267.296ZM41.472 273.216C38.5308 277.138 37.216 281.978 37.216 287.424H45.216C45.216 283.27 46.2052 280.238 47.872 278.016L41.472 273.216ZM37.216 287.424C37.216 294.155 41.269 299.222 47.6357 302.734L51.5003 295.73C46.731 293.098 45.216 290.293 45.216 287.424H37.216ZM47.7303 302.785C53.5839 305.813 60.5565 308.491 68.6044 310.847L70.8516 303.169C63.1555 300.917 56.6881 298.411 51.4057 295.679L47.7303 302.785ZM68.7146 310.877C76.6635 312.959 84.6168 315.421 92.5747 318.263L95.2653 310.729C87.0952 307.811 78.9205 305.281 70.7414 303.139L68.7146 310.877ZM92.6551 318.291C100.115 320.777 106.354 324.744 111.447 330.189L117.289 324.723C111.246 318.264 103.853 313.591 95.1849 310.701L92.6551 318.291ZM111.492 330.236C116.262 335.171 118.72 341.433 118.72 349.344H126.72C126.72 339.591 123.61 331.261 117.244 324.676L111.492 330.236ZM118.72 349.344C118.72 362.124 112.446 372.986 98.9012 382.016L103.339 388.672C118.594 378.502 126.72 365.364 126.72 349.344H118.72ZM98.9116 382.009C85.2749 391.039 71.3439 395.456 57.056 395.456V403.456C73.1041 403.456 88.5491 398.465 103.328 388.679L98.9116 382.009ZM57.056 395.456C42.3354 395.456 30.4621 392.844 21.2244 387.87L17.4316 394.914C28.1619 400.692 41.4407 403.456 57.056 403.456V395.456ZM21.3052 387.915C12.7457 383.048 8.64 376.013 8.64 366.336H0.64C0.64 378.931 6.32629 388.6 17.3508 394.869L21.3052 387.915ZM8.64 366.336C8.64 360.524 10.6748 356.101 14.7118 352.686L9.54423 346.578C3.59716 351.611 0.64 358.324 0.64 366.336H8.64ZM14.7219 352.677C19.1283 348.923 24.4293 347.008 30.848 347.008V339.008C22.6747 339.008 15.4957 341.509 9.53413 346.587L14.7219 352.677ZM30.848 347.008C32.0816 347.008 33.7642 347.165 35.9504 347.53L37.2656 339.638C34.8438 339.235 32.6864 339.008 30.848 339.008V347.008ZM153.271 207.936L151.482 204.358L148.477 205.86L149.437 209.079L153.271 207.936ZM187.255 209.376L184.358 212.135L184.392 212.17L184.426 212.204L187.255 209.376ZM191.863 254.016L187.881 253.633L187.459 258.016H191.863V254.016ZM233.047 247.968L236.476 245.91L234.863 243.221L231.866 244.146L233.047 247.968ZM229.591 273.888L231.875 277.172L231.889 277.162L231.903 277.152L229.591 273.888ZM200.503 276.768L201.287 272.846L201.287 272.846L200.503 276.768ZM189.271 274.752L189.712 270.776L185.737 270.335L185.295 274.31L189.271 274.752ZM187.543 285.12L183.609 284.392L183.596 284.463L183.586 284.534L187.543 285.12ZM185.527 298.656L181.571 298.063L181.569 298.071L181.568 298.08L185.527 298.656ZM230.743 365.472L234.044 363.213L232.018 360.253L228.856 361.945L230.743 365.472ZM224.983 393.12L226.771 396.698L226.793 396.687L226.814 396.676L224.983 393.12ZM154.423 309.888L150.45 309.418L150.447 309.443L150.444 309.469L154.423 309.888ZM157.015 274.464H161.015V270.206L156.765 270.472L157.015 274.464ZM134.839 279.36L131.51 281.579L133.442 284.476L136.577 282.962L134.839 279.36ZM136.279 256.32L138.925 259.319L138.973 259.277L139.02 259.233L136.279 256.32ZM157.879 252L157.382 255.969L161.351 256.465L161.848 252.496L157.879 252ZM155.059 211.514C160.696 208.696 166.327 207.328 171.991 207.328V199.328C164.982 199.328 158.133 201.032 151.482 204.358L155.059 211.514ZM171.991 207.328C177.397 207.328 181.38 209.008 184.358 212.135L190.151 206.617C185.449 201.68 179.256 199.328 171.991 199.328V207.328ZM184.426 212.204C187.46 215.238 189.303 220.009 189.303 227.232H197.303C197.303 218.711 195.113 211.578 190.083 206.548L184.426 212.204ZM189.303 227.232C189.303 234.947 188.832 243.744 187.881 253.633L195.844 254.399C196.813 244.32 197.303 235.261 197.303 227.232H189.303ZM191.863 258.016C206.641 258.016 220.768 255.946 234.227 251.79L231.866 244.146C219.213 248.054 205.884 250.016 191.863 250.016V258.016ZM229.617 250.026C231.492 253.152 232.503 256.929 232.503 261.504H240.503C240.503 255.711 239.209 250.464 236.476 245.91L229.617 250.026ZM232.503 261.504C232.503 265.013 230.988 267.996 227.278 270.624L231.903 277.152C237.409 273.252 240.503 267.979 240.503 261.504H232.503ZM227.306 270.604C223.445 273.29 219.716 274.496 216.055 274.496V282.496C221.609 282.496 226.904 280.63 231.875 277.172L227.306 270.604ZM216.055 274.496C211.77 274.496 206.855 273.959 201.287 272.846L199.718 280.69C205.67 281.881 211.123 282.496 216.055 282.496V274.496ZM201.287 272.846C195.57 271.702 191.646 270.991 189.712 270.776L188.829 278.728C190.351 278.897 193.915 279.53 199.718 280.69L201.287 272.846ZM185.295 274.31C185.122 275.87 184.574 279.183 183.609 284.392L191.476 285.848C192.431 280.689 193.035 277.09 193.246 275.194L185.295 274.31ZM183.586 284.534C182.818 289.716 182.146 294.226 181.571 298.063L189.482 299.249C190.059 295.406 190.731 290.892 191.499 285.706L183.586 284.534ZM181.568 298.08C180.001 308.854 179.223 320.376 179.223 332.64H187.223C187.223 320.712 187.98 309.578 189.485 299.232L181.568 298.08ZM179.223 332.64C179.223 346.097 181.385 356.882 186.276 364.411C191.361 372.239 199.1 376.096 208.855 376.096V368.096C201.521 368.096 196.444 365.377 192.985 360.053C189.332 354.43 187.223 345.487 187.223 332.64H179.223ZM208.855 376.096C216.089 376.096 224.049 373.588 232.629 368.999L228.856 361.945C220.924 366.188 214.292 368.096 208.855 368.096V376.096ZM227.441 367.731C229.362 370.538 230.487 374.388 230.487 379.584H238.487C238.487 373.26 237.115 367.702 234.044 363.213L227.441 367.731ZM230.487 379.584C230.487 383.464 228.533 386.792 223.151 389.564L226.814 396.676C234.104 392.92 238.487 387.224 238.487 379.584H230.487ZM223.194 389.542C217.73 392.274 210.982 393.728 202.807 393.728V401.728C211.911 401.728 219.947 400.11 226.771 396.698L223.194 389.542ZM202.807 393.728C186.669 393.728 175.257 389.167 167.793 380.685C160.244 372.106 156.119 358.828 156.119 340.128H148.119C148.119 359.828 152.441 375.35 161.788 385.971C171.22 396.689 185.152 401.728 202.807 401.728V393.728ZM156.119 340.128C156.119 334.798 156.863 324.913 158.401 310.307L150.444 309.469C148.91 324.047 148.119 334.322 148.119 340.128H156.119ZM158.395 310.358C160.131 295.694 161.015 283.712 161.015 274.464H153.015C153.015 283.264 152.17 294.898 150.45 309.418L158.395 310.358ZM156.765 270.472C147.263 271.066 139.305 272.762 133.1 275.758L136.577 282.962C141.508 280.582 148.334 279.014 157.264 278.456L156.765 270.472ZM138.167 277.141C136.329 274.385 135.383 271.231 135.383 267.552H127.383C127.383 272.705 128.74 277.423 131.51 281.579L138.167 277.141ZM135.383 267.552C135.383 264.015 136.577 261.391 138.925 259.319L133.632 253.321C129.452 257.009 127.383 261.873 127.383 267.552H135.383ZM139.02 259.233C141.486 256.912 144.514 255.712 148.375 255.712V247.712C142.635 247.712 137.599 249.584 133.537 253.407L139.02 259.233ZM148.375 255.712C153.223 255.712 156.137 255.813 157.382 255.969L158.375 248.031C156.548 247.803 153.126 247.712 148.375 247.712V255.712ZM161.848 252.496C162.069 250.727 162.167 248.527 162.167 245.952H154.167C154.167 248.369 154.072 250.201 153.909 251.504L161.848 252.496ZM162.167 245.952C162.167 231.261 160.503 218.19 157.104 206.793L149.437 209.079C152.566 219.57 154.167 231.843 154.167 245.952H162.167ZM258.832 366.624L254.836 366.432L254.832 366.528V366.624H258.832ZM261.712 306.72L265.707 306.912L265.712 306.816V306.72H261.712ZM253.648 253.728L252.072 250.051L248.724 251.486L249.84 254.953L253.648 253.728ZM293.392 316.512L297.362 316.997L297.363 316.992L293.392 316.512ZM321.328 355.68L318.211 353.173L318.204 353.181L321.328 355.68ZM339.472 326.304L335.857 324.592L335.85 324.606L335.843 324.62L339.472 326.304ZM348.688 299.52L352.649 300.07L352.703 299.688L352.682 299.302L348.688 299.52ZM343.792 253.728L342.387 249.983L339.126 251.206L339.889 254.604L343.792 253.728ZM378.64 256.32L375.878 259.213L375.91 259.244L375.942 259.274L378.64 256.32ZM385.264 392.544L386.44 396.367L389.902 395.302L389.184 391.751L385.264 392.544ZM349.552 343.584L353.521 344.08L345.932 341.881L349.552 343.584ZM321.328 383.04L323.995 386.021L323.998 386.018L321.328 383.04ZM262.827 366.816L265.707 306.912L257.716 306.528L254.836 366.432L262.827 366.816ZM265.712 306.72C265.712 287.706 262.966 269.626 257.455 252.503L249.84 254.953C255.081 271.238 257.712 288.486 257.712 306.72H265.712ZM255.223 257.405C259.961 255.374 266.012 254.272 273.52 254.272V246.272C265.283 246.272 258.086 247.474 252.072 250.051L255.223 257.405ZM273.52 254.272C280.466 254.272 284.976 256.184 287.825 259.354C290.747 262.605 292.56 267.878 292.56 275.904H300.56C300.56 266.842 298.532 259.299 293.774 254.006C288.943 248.632 281.933 246.272 273.52 246.272V254.272ZM292.56 275.904C292.56 285.263 291.526 298.612 289.42 316.032L297.363 316.992C299.481 299.468 300.56 285.745 300.56 275.904H292.56ZM289.421 316.027C287.307 333.323 286.224 346.106 286.224 354.24H294.224C294.224 346.63 295.252 334.261 297.362 316.997L289.421 316.027ZM286.224 354.24C286.224 359.559 287.411 364.294 290.49 367.716C293.642 371.217 298.132 372.64 303.184 372.64V364.64C299.595 364.64 297.605 363.663 296.437 362.364C295.196 360.986 294.224 358.521 294.224 354.24H286.224ZM303.184 372.64C306.9 372.64 310.513 371.097 313.932 368.655C317.364 366.204 320.866 362.661 324.451 358.179L318.204 353.181C314.877 357.339 311.899 360.276 309.283 362.145C306.654 364.023 304.651 364.64 303.184 364.64V372.64ZM324.444 358.187C331.761 349.091 337.977 339.021 343.1 327.988L335.843 324.62C330.982 335.091 325.102 344.605 318.211 353.173L324.444 358.187ZM343.086 328.016C348.337 316.933 351.607 307.576 352.649 300.07L344.726 298.97C343.848 305.288 340.974 313.787 335.857 324.592L343.086 328.016ZM352.682 299.302C351.528 278.158 349.885 262.609 347.694 252.852L339.889 254.604C341.922 263.663 343.543 278.642 344.693 299.738L352.682 299.302ZM345.196 257.473C350.907 255.332 356.672 254.272 362.512 254.272V246.272C355.679 246.272 348.964 247.516 342.387 249.983L345.196 257.473ZM362.512 254.272C368.143 254.272 372.488 255.978 375.878 259.213L381.401 253.427C376.343 248.598 369.936 246.272 362.512 246.272V254.272ZM375.942 259.274C379.533 262.552 381.264 266.474 381.264 271.296H389.264C389.264 264.214 386.578 258.152 381.337 253.366L375.942 259.274ZM381.264 271.296C381.264 276.975 380.43 286.645 378.702 300.464L386.641 301.456C388.369 287.627 389.264 277.521 389.264 271.296H381.264ZM378.702 300.464C376.952 314.466 376.08 329.129 376.08 344.448H384.08C384.08 329.431 384.935 315.102 386.641 301.456L378.702 300.464ZM376.08 344.448C376.08 359.729 377.842 376.029 381.343 393.337L389.184 391.751C385.773 374.883 384.08 359.119 384.08 344.448H376.08ZM384.087 388.721C376.867 390.942 370.554 392 365.104 392V400C371.557 400 378.684 398.754 386.44 396.367L384.087 388.721ZM365.104 392C360.115 392 356.963 390.409 354.902 387.684C352.682 384.747 351.248 379.866 351.248 372.384H343.248C343.248 380.646 344.789 387.573 348.521 392.508C352.412 397.655 358.188 400 365.104 400V392ZM351.248 372.384C351.248 365.719 351.992 356.31 353.521 344.08L345.582 343.088C344.039 355.434 343.248 365.225 343.248 372.384H351.248ZM345.932 341.881C338.434 357.814 329.322 370.501 318.657 380.062L323.998 386.018C335.605 375.611 345.309 361.994 353.171 345.287L345.932 341.881ZM318.66 380.059C308.227 389.394 298 393.728 287.92 393.728V401.728C300.495 401.728 312.54 396.27 323.995 386.021L318.66 380.059ZM287.92 393.728C278.911 393.728 272.871 391.333 269.025 387.22C265.132 383.057 262.832 376.44 262.832 366.624H254.832C254.832 377.544 257.379 386.479 263.182 392.684C269.032 398.939 277.536 401.728 287.92 401.728V393.728ZM426.954 281.664L430.95 281.497L430.78 277.422L426.709 277.671L426.954 281.664ZM404.49 286.56L400.978 288.475L402.801 291.817L406.229 290.162L404.49 286.56ZM405.93 262.08L408.576 265.079L408.624 265.037L408.671 264.993L405.93 262.08ZM426.954 257.76L426.556 261.74L430.758 262.16L430.95 257.942L426.954 257.76ZM449.13 204.48L446.244 201.71L446.244 201.71L449.13 204.48ZM537.258 200.736L533.996 203.051L536.737 206.914L540.086 203.564L537.258 200.736ZM616.746 187.488L614.64 190.889L614.64 190.889L616.746 187.488ZM596.874 233.856L592.976 232.957L592.02 237.102L596.216 237.802L596.874 233.856ZM593.418 211.104L590.113 213.357L590.137 213.393L590.163 213.429L593.418 211.104ZM557.994 211.104L555.728 207.808L555.177 208.186L554.78 208.723L557.994 211.104ZM548.778 232.704L544.897 231.734L544.897 231.734L548.778 232.704ZM545.322 259.776H541.322V263.776H545.322V259.776ZM597.162 253.728L600.592 251.67L599.096 249.177L596.262 249.83L597.162 253.728ZM544.746 281.664L545.242 277.695L540.658 277.122L540.746 281.741L544.746 281.664ZM547.626 431.424H551.626V431.386L551.625 431.347L547.626 431.424ZM505.866 446.688L501.987 445.711L501.04 449.469L504.767 450.534L505.866 446.688ZM512.778 280.8L516.774 280.633L516.615 276.8H512.778V280.8ZM458.922 281.376L458.795 277.378L454.847 277.503L454.922 281.453L458.922 281.376ZM461.802 431.424H465.802V431.386L465.801 431.347L461.802 431.424ZM420.042 446.688L416.163 445.711L415.216 449.469L418.943 450.534L420.042 446.688ZM512.778 259.2V263.2H516.7L516.777 259.278L512.778 259.2ZM518.538 230.688L522.257 232.16L522.582 231.34L522.531 230.46L518.538 230.688ZM511.626 214.272L508.735 217.037L508.766 217.069L508.797 217.1L511.626 214.272ZM472.17 213.984L469.904 210.688L469.416 211.023L469.046 211.485L472.17 213.984ZM459.498 258.624H455.498V262.491L459.362 262.622L459.498 258.624ZM433.546 349.056C433.546 345.49 432.675 322.891 430.95 281.497L422.957 281.831C424.688 323.381 425.546 345.71 425.546 349.056H433.546ZM426.709 277.671C417.027 278.264 408.966 279.957 402.751 282.958L406.229 290.162C411.149 287.787 418.064 286.216 427.198 285.657L426.709 277.671ZM408.001 284.645C406.003 280.981 405.034 277.221 405.034 273.312H397.034C397.034 278.619 398.368 283.691 400.978 288.475L408.001 284.645ZM405.034 273.312C405.034 269.775 406.228 267.151 408.576 265.079L403.283 259.081C399.103 262.769 397.034 267.633 397.034 273.312H405.034ZM408.671 264.993C411.206 262.607 414.07 261.472 417.45 261.472V253.472C411.998 253.472 407.182 255.409 403.188 259.167L408.671 264.993ZM417.45 261.472C421.858 261.472 424.851 261.57 426.556 261.74L427.352 253.78C425.216 253.566 421.874 253.472 417.45 253.472V261.472ZM430.95 257.942C431.868 237.728 438.905 220.907 452.015 207.25L446.244 201.71C431.706 216.853 423.959 235.552 422.958 257.578L430.95 257.942ZM452.015 207.25C465.045 193.677 481.36 186.88 501.258 186.88V178.88C479.3 178.88 460.862 186.483 446.244 201.71L452.015 207.25ZM501.258 186.88C515.613 186.88 526.354 192.283 533.996 203.051L540.52 198.421C531.266 185.381 518.006 178.88 501.258 178.88V186.88ZM540.086 203.564C553.167 190.484 568.76 184 587.082 184V176C566.619 176 548.997 183.34 534.429 197.908L540.086 203.564ZM587.082 184C598.224 184 607.342 186.371 614.64 190.889L618.851 184.087C610.021 178.621 599.363 176 587.082 176V184ZM614.64 190.889C621.481 195.124 624.842 201.203 624.842 209.664H632.842C632.842 198.541 628.139 189.836 618.851 184.087L614.64 190.889ZM624.842 209.664C624.842 215.434 622.735 220.235 618.348 224.297L623.783 230.167C629.764 224.629 632.842 217.718 632.842 209.664H624.842ZM618.348 224.297C613.908 228.408 608.736 230.432 602.634 230.432V238.432C610.739 238.432 617.855 235.656 623.783 230.167L618.348 224.297ZM602.634 230.432C601.4 230.432 599.718 230.275 597.531 229.91L596.216 237.802C598.638 238.205 600.795 238.432 602.634 238.432V230.432ZM600.771 234.755C601.394 232.056 601.738 229.536 601.738 227.232H593.738C593.738 228.768 593.505 230.664 592.976 232.957L600.771 234.755ZM601.738 227.232C601.738 219.97 600.183 213.693 596.673 208.779L590.163 213.429C592.413 216.579 593.738 221.054 593.738 227.232H601.738ZM596.723 208.851C592.811 203.113 586.165 200.768 578.154 200.768V208.768C584.735 208.768 588.265 210.647 590.113 213.357L596.723 208.851ZM578.154 200.768C570.03 200.768 562.523 203.136 555.728 207.808L560.26 214.4C565.753 210.624 571.686 208.768 578.154 208.768V200.768ZM554.78 208.723C550.516 214.479 547.274 222.228 544.897 231.734L552.658 233.674C554.89 224.748 557.792 218.097 561.208 213.485L554.78 208.723ZM544.897 231.734C542.52 241.243 541.322 250.593 541.322 259.776H549.322C549.322 251.295 550.428 242.597 552.658 233.674L544.897 231.734ZM545.322 263.776C562.727 263.776 580.309 261.722 598.061 257.626L596.262 249.83C579.071 253.798 562.092 255.776 545.322 255.776V263.776ZM593.732 255.786C595.594 258.89 596.618 262.755 596.618 267.552H604.618C604.618 261.597 603.337 256.246 600.592 251.67L593.732 255.786ZM596.618 267.552C596.618 271.395 595.067 274.593 591.529 277.362L596.459 283.662C601.753 279.519 604.618 274.077 604.618 267.552H596.618ZM591.529 277.362C587.948 280.164 583.299 281.696 577.29 281.696V289.696C584.72 289.696 591.207 287.772 596.459 283.662L591.529 277.362ZM577.29 281.696C577.564 281.696 577.832 281.733 577.567 281.704C577.487 281.695 577.361 281.681 577.186 281.66C576.837 281.619 576.32 281.557 575.631 281.473C574.255 281.306 572.213 281.054 569.502 280.718C564.08 280.047 555.994 279.039 545.242 277.695L544.25 285.633C555.002 286.977 563.092 287.985 568.518 288.658C571.231 288.994 573.28 289.246 574.664 289.415C575.356 289.499 575.886 289.563 576.251 289.606C576.432 289.627 576.581 289.644 576.691 289.656C576.744 289.662 576.8 289.668 576.851 289.673C576.875 289.675 576.912 289.679 576.954 289.682C576.975 289.684 577.009 289.687 577.049 289.689C577.076 289.69 577.17 289.696 577.29 289.696V281.696ZM540.746 281.741L543.626 431.501L551.625 431.347L548.745 281.587L540.746 281.741ZM543.626 431.424C543.626 436.853 542.05 440.256 539.502 442.407C536.823 444.668 532.375 446.144 525.45 446.144V454.144C533.309 454.144 539.948 452.5 544.662 448.521C549.506 444.432 551.626 438.475 551.626 431.424H543.626ZM525.45 446.144C520.996 446.144 514.878 445.103 506.965 442.842L504.767 450.534C512.981 452.881 519.919 454.144 525.45 454.144V446.144ZM509.745 447.665C516.192 422.071 519.37 389.165 519.37 349.056H511.37C511.37 388.819 508.212 421.001 501.987 445.711L509.745 447.665ZM519.37 349.056C519.37 344.915 518.499 322.032 516.774 280.633L508.781 280.967C510.512 322.512 511.37 345.133 511.37 349.056H519.37ZM512.778 276.8C488.96 276.8 470.956 276.992 458.795 277.378L459.049 285.374C471.079 284.992 488.98 284.8 512.778 284.8V276.8ZM454.922 281.453L457.802 431.501L465.801 431.347L462.921 281.299L454.922 281.453ZM457.802 431.424C457.802 436.853 456.226 440.256 453.678 442.407C450.999 444.668 446.551 446.144 439.626 446.144V454.144C447.485 454.144 454.124 452.5 458.838 448.521C463.682 444.432 465.802 438.475 465.802 431.424H457.802ZM439.626 446.144C435.172 446.144 429.054 445.103 421.141 442.842L418.943 450.534C427.157 452.881 434.095 454.144 439.626 454.144V446.144ZM423.921 447.665C430.368 422.071 433.546 389.165 433.546 349.056H425.546C425.546 388.819 422.388 421.001 416.163 445.711L423.921 447.665ZM516.777 259.278C516.96 249.97 518.783 240.938 522.257 232.16L514.819 229.216C510.997 238.87 508.98 248.846 508.779 259.122L516.777 259.278ZM522.531 230.46C522.099 222.893 519.461 216.451 514.454 211.444L508.797 217.1C512.238 220.541 514.209 225.043 514.544 230.916L522.531 230.46ZM514.516 211.507C509.318 206.073 501.985 203.648 493.194 203.648V211.648C500.53 211.648 505.485 213.639 508.735 217.037L514.516 211.507ZM493.194 203.648C484.56 203.648 476.753 205.979 469.904 210.688L474.436 217.28C479.875 213.541 486.083 211.648 493.194 211.648V203.648ZM469.046 211.485C459.835 222.999 455.498 238.889 455.498 258.624H463.498C463.498 239.959 467.608 226.089 475.293 216.483L469.046 211.485ZM459.362 262.622C470.762 263.008 488.579 263.2 512.778 263.2V255.2C488.592 255.2 470.889 255.008 459.633 254.626L459.362 262.622Z" fill="#374D67"/>
<defs>
<filter id="filter0_d" x="5.20001" y="0.0639801" width="626.445" height="227.392" filterUnits="userSpaceOnUse" color-interpolation-filters="sRGB">
<feFlood flood-opacity="0" result="BackgroundImageFix"/>
<feColorMatrix in="SourceAlpha" type="matrix" values="0 0 0 0 0 0 0 0 0 0 0 0 0 0 0 0 0 0 127 0"/>
<feOffset dy="4"/>
<feGaussianBlur stdDeviation="2"/>
<feColorMatrix type="matrix" values="0 0 0 0 0 0 0 0 0 0 0 0 0 0 0 0 0 0 0.25 0"/>
<feBlend mode="normal" in2="BackgroundImageFix" result="effect1_dropShadow"/>
<feBlend mode="normal" in="SourceGraphic" in2="effect1_dropShadow" result="shape"/>
</filter>
</defs>
</svg>
